<svg width="360" height="242" viewBox="0 0 360 242" fill="none" xmlns="http://www.w3.org/2000/svg">
<mask id="mask0_839_6143" style="mask-type:alpha" maskUnits="userSpaceOnUse" x="-4" y="0" width="365" height="242">
<rect x="-4" width="365" height="242" fill="#D9D9D9"/>
</mask>
<g mask="url(#mask0_839_6143)">
<circle cx="178" cy="191" r="180" fill="white" fill-opacity="0.3"/>
<circle cx="178" cy="191" r="180" fill="white" fill-opacity="0.3"/>
<circle cx="178" cy="191" r="155" fill="white" fill-opacity="0.5"/>
<circle cx="178" cy="191" r="135" fill="white"/>
<g clip-path="url(#clip0_839_6143)">
<path d="M98.9732 237.52L98.9641 237.579C98.9533 237.522 98.9429 237.463 98.9331 237.405C98.9151 237.311 98.8994 237.218 98.8847 237.124C98.2999 233.442 98.6217 229.673 99.8223 226.144C100.053 225.455 100.316 224.779 100.611 224.115C101.739 221.545 103.337 219.209 105.325 217.227C105.97 216.567 106.706 216.002 107.511 215.55C107.629 215.487 107.748 215.428 107.87 215.373C108.614 215.012 109.452 214.89 110.268 215.025C110.565 215.081 110.852 215.178 111.122 215.312C111.217 215.358 111.308 215.409 111.398 215.463C111.943 215.82 112.409 216.287 112.766 216.833C113.123 217.379 113.363 217.993 113.472 218.637C113.627 219.596 113.592 220.577 113.368 221.523C113.349 221.614 113.328 221.704 113.306 221.793C113.147 222.424 112.948 223.043 112.709 223.648C110.317 229.802 105.177 235.262 98.9732 237.52Z" fill="#F2F2F2"/>
<path d="M111.106 215.332C109.24 218.013 107.477 220.763 105.818 223.581C104.16 226.396 102.611 229.272 101.17 232.208C100.364 233.85 99.5932 235.51 98.8577 237.186C98.7763 237.371 99.051 237.532 99.1335 237.344C100.447 234.353 101.873 231.414 103.41 228.528C104.946 225.644 106.591 222.822 108.343 220.061C109.324 218.516 110.337 216.993 111.382 215.49C111.499 215.322 111.223 215.164 111.106 215.332Z" fill="white"/>
<path d="M113.104 221.539C111.701 223.362 109.637 224.558 107.358 224.869C106.723 224.956 106.079 224.968 105.44 224.907C105.236 224.888 105.235 225.206 105.437 225.225C107.814 225.425 110.173 224.68 112.003 223.15C112.517 222.721 112.979 222.234 113.379 221.698C113.502 221.535 113.225 221.377 113.104 221.539Z" fill="white"/>
<path d="M101.126 231.426C100.8 230.961 100.529 230.46 100.318 229.933C99.8379 228.732 99.6674 227.428 99.8224 226.144C100.053 225.455 100.316 224.778 100.611 224.115C100.629 224.141 100.64 224.171 100.642 224.203C100.645 224.234 100.639 224.266 100.626 224.294C100.418 224.792 100.269 225.313 100.181 225.845C99.8651 227.743 100.303 229.689 101.402 231.268C101.416 231.285 101.425 231.306 101.429 231.328C101.432 231.349 101.431 231.372 101.423 231.393C101.411 231.42 101.391 231.444 101.367 231.462C101.343 231.48 101.314 231.491 101.284 231.495C101.254 231.498 101.223 231.493 101.196 231.481C101.168 231.469 101.144 231.45 101.126 231.426Z" fill="white"/>
<path d="M107.559 215.348C107.175 216.877 107.289 218.49 107.885 219.95C107.906 219.986 107.941 220.013 107.981 220.024C108.022 220.035 108.065 220.029 108.102 220.009C108.138 219.987 108.164 219.953 108.175 219.912C108.186 219.872 108.181 219.829 108.161 219.792C107.603 218.406 107.5 216.88 107.866 215.432C107.875 215.392 107.869 215.349 107.848 215.314C107.827 215.278 107.793 215.252 107.753 215.241C107.713 215.231 107.67 215.236 107.634 215.255C107.598 215.275 107.571 215.308 107.559 215.348Z" fill="white"/>
<path d="M98.9341 229.834L98.9535 229.891C98.9173 229.845 98.8808 229.797 98.8452 229.751C98.7857 229.676 98.7284 229.601 98.6715 229.524C96.4434 226.535 94.9778 223.048 94.4015 219.365C94.2859 218.648 94.2045 217.927 94.1574 217.202C93.9624 214.403 94.293 211.591 95.1323 208.913C95.397 208.028 95.7865 207.186 96.2892 206.412C96.3648 206.301 96.4424 206.194 96.5246 206.089C97.016 205.423 97.7017 204.926 98.4873 204.667C98.7758 204.578 99.0751 204.53 99.3768 204.524C99.4821 204.521 99.5863 204.523 99.6906 204.529C100.34 204.593 100.969 204.789 101.539 205.107C102.109 205.425 102.607 205.857 103.002 206.377C103.585 207.154 104.009 208.039 104.251 208.981C104.275 209.07 104.299 209.159 104.321 209.249C104.473 209.881 104.584 210.523 104.654 211.169C105.394 217.73 103.379 224.952 98.9341 229.834Z" fill="#F2F2F2"/>
<path d="M99.3718 204.549C98.9649 207.791 98.681 211.045 98.5203 214.311C98.3602 217.574 98.3241 220.84 98.4119 224.11C98.4611 225.939 98.5493 227.766 98.6764 229.592C98.6905 229.794 99.0087 229.809 98.9945 229.604C98.7681 226.345 98.6652 223.08 98.686 219.81C98.7072 216.543 98.8524 213.28 99.1215 210.02C99.2722 208.197 99.4616 206.377 99.6898 204.561C99.7153 204.358 99.3972 204.346 99.3718 204.549Z" fill="white"/>
<path d="M104.024 209.119C103.629 211.384 102.356 213.402 100.483 214.736C99.9601 215.108 99.3961 215.418 98.802 215.661C98.6121 215.738 98.7588 216.021 98.9471 215.944C101.145 215.017 102.888 213.261 103.798 211.056C104.053 210.438 104.236 209.792 104.342 209.131C104.375 208.93 104.056 208.918 104.024 209.119Z" fill="white"/>
<path d="M98.0094 223.438C97.5049 223.178 97.0323 222.86 96.6012 222.491C95.6176 221.65 94.8612 220.575 94.4016 219.366C94.286 218.648 94.2046 217.927 94.1575 217.203C94.1854 217.217 94.209 217.239 94.2259 217.266C94.2429 217.293 94.2525 217.323 94.254 217.355C94.3014 217.892 94.4108 218.422 94.5802 218.935C95.1822 220.762 96.4742 222.282 98.1807 223.17C98.2011 223.179 98.2188 223.192 98.2322 223.21C98.2456 223.228 98.2543 223.248 98.2574 223.27C98.2593 223.301 98.2534 223.331 98.24 223.358C98.2267 223.385 98.2065 223.408 98.1814 223.425C98.1563 223.442 98.1272 223.452 98.0971 223.455C98.0669 223.457 98.0366 223.451 98.0094 223.438Z" fill="white"/>
<path d="M96.2378 206.211C96.6083 207.744 97.4584 209.118 98.6643 210.135C98.6999 210.157 98.743 210.165 98.7841 210.156C98.8252 210.146 98.8612 210.122 98.884 210.086C98.9058 210.05 98.9129 210.008 98.9039 209.967C98.8948 209.926 98.8704 209.89 98.8357 209.866C97.6981 208.899 96.8972 207.595 96.5486 206.143C96.5383 206.103 96.5129 206.068 96.4778 206.047C96.4426 206.025 96.4004 206.018 96.3601 206.027C96.3198 206.036 96.2845 206.06 96.2616 206.094C96.2388 206.129 96.2303 206.17 96.2378 206.211Z" fill="white"/>
<path d="M99.072 237.559L99.1187 237.596C99.0635 237.577 99.0073 237.557 98.9522 237.537C98.862 237.506 98.7729 237.473 98.6838 237.439C95.1968 236.121 92.0839 233.972 89.6148 231.18C89.1311 230.637 88.6742 230.074 88.2442 229.489C86.572 227.235 85.3365 224.688 84.6013 221.979C84.3479 221.091 84.2226 220.172 84.229 219.248C84.2332 219.115 84.2406 218.982 84.2534 218.85C84.309 218.024 84.6192 217.236 85.1413 216.594C85.3368 216.364 85.5631 216.163 85.8139 215.995C85.9008 215.935 85.99 215.881 86.0812 215.83C86.6625 215.534 87.2987 215.361 87.95 215.322C88.6013 215.283 89.2537 215.379 89.8662 215.603C90.7765 215.945 91.6106 216.462 92.3209 217.126C92.3899 217.187 92.4578 217.25 92.5247 217.313C92.9934 217.764 93.4324 218.245 93.839 218.752C97.9963 223.881 100.188 231.052 99.072 237.559Z" fill="#F2F2F2"/>
<path d="M85.8229 216.018C87.226 218.969 88.7394 221.864 90.363 224.702C91.9856 227.538 93.7143 230.31 95.5489 233.017C96.5754 234.531 97.6339 236.024 98.7242 237.494C98.8449 237.656 99.1212 237.498 98.999 237.333C97.0529 234.709 95.2079 232.013 93.4642 229.246C91.7226 226.482 90.0875 223.654 88.5589 220.763C87.7038 219.146 86.8834 217.511 86.0977 215.858C86.0098 215.673 85.7353 215.834 85.8229 216.018Z" fill="white"/>
<path d="M92.2037 217.363C93.0907 219.485 93.1057 221.871 92.2454 224.003C92.0054 224.598 91.6972 225.164 91.3271 225.688C91.209 225.856 91.4848 226.015 91.6019 225.848C92.9543 223.884 93.4772 221.465 93.057 219.117C92.9391 218.459 92.7449 217.816 92.4785 217.203C92.3975 217.015 92.1233 217.177 92.2037 217.363Z" fill="white"/>
<path d="M94.8478 232.668C94.2827 232.72 93.7135 232.707 93.1515 232.628C91.8697 232.45 90.6535 231.951 89.6147 231.179C89.131 230.637 88.6741 230.074 88.2441 229.488C88.2757 229.486 88.3073 229.492 88.336 229.505C88.3646 229.518 88.3893 229.539 88.4075 229.565C88.7368 229.992 89.1145 230.38 89.533 230.72C91.0244 231.935 92.9315 232.52 94.8478 232.349C94.8696 232.346 94.892 232.348 94.9128 232.356C94.9336 232.363 94.9521 232.376 94.9665 232.393C94.9844 232.417 94.9957 232.446 94.9991 232.476C95.0025 232.506 94.998 232.537 94.9859 232.564C94.9739 232.592 94.9549 232.616 94.9306 232.634C94.9064 232.653 94.8778 232.664 94.8478 232.668Z" fill="white"/>
<path d="M84.0776 219.107C85.2153 220.199 86.6718 220.899 88.2351 221.106C88.321 221.117 88.3934 221.024 88.3943 220.947C88.3933 220.905 88.3762 220.865 88.3465 220.835C88.3169 220.806 88.277 220.789 88.2351 220.788C86.7555 220.585 85.3785 219.918 84.3026 218.882C84.1551 218.74 83.9298 218.964 84.0776 219.107Z" fill="white"/>
<path d="M120.794 195.586C121.105 195.372 121.365 195.094 121.557 194.769C121.748 194.445 121.866 194.082 121.902 193.707C121.938 193.332 121.892 192.954 121.766 192.599C121.64 192.243 121.438 191.92 121.174 191.652L122.173 169.334L117.083 169.906L117.379 191.735C116.957 192.209 116.724 192.821 116.724 193.456C116.723 194.09 116.955 194.703 117.376 195.177C117.797 195.652 118.378 195.955 119.008 196.031C119.638 196.106 120.273 195.948 120.794 195.586Z" fill="#FFB8B8"/>
<path d="M130.08 233.364L132.977 233.873L135.84 222.941L132.044 222.189L130.08 233.364Z" fill="#FFB8B8"/>
<path d="M138.091 237.545L128.986 235.944L129.604 232.427L135.191 233.409C135.653 233.49 136.095 233.661 136.49 233.913C136.886 234.165 137.228 234.492 137.498 234.876C137.767 235.26 137.958 235.694 138.059 236.152C138.161 236.61 138.172 237.083 138.091 237.545Z" fill="#2F2E41"/>
<path d="M122.128 234.813L125.07 234.813L126.469 223.468L122.128 223.468L122.128 234.813Z" fill="#FFB8B8"/>
<path d="M130.742 237.544L121.498 237.545L121.498 233.973L127.17 233.973C128.118 233.973 129.026 234.349 129.696 235.019C130.366 235.689 130.742 236.597 130.742 237.544Z" fill="#2F2E41"/>
<path d="M134.641 231.707C134.595 231.707 134.549 231.704 134.503 231.699L131.041 231.414C130.884 231.395 130.731 231.345 130.594 231.266C130.456 231.186 130.336 231.08 130.241 230.953C130.146 230.826 130.078 230.681 130.04 230.527C130.003 230.373 129.997 230.212 130.023 230.056L133.22 212.138L131.06 200.748C131.043 200.655 130.992 200.572 130.918 200.514C130.844 200.456 130.751 200.426 130.657 200.431C130.563 200.436 130.474 200.474 130.406 200.54C130.338 200.605 130.296 200.693 130.288 200.786L127.587 231.167C127.558 231.472 127.411 231.754 127.178 231.952C126.944 232.151 126.643 232.251 126.337 232.232L123.076 232.11C122.79 232.09 122.521 231.966 122.321 231.761C122.12 231.557 122.002 231.286 121.987 230.999L121.768 194.587L138.678 192.473L139.859 210.717L139.855 210.736L135.778 230.812C135.716 231.067 135.57 231.294 135.364 231.456C135.158 231.618 134.903 231.706 134.641 231.707Z" fill="#2F2E41"/>
<path d="M127.343 154.873C130.598 154.873 133.236 152.235 133.236 148.98C133.236 145.726 130.598 143.087 127.343 143.087C124.089 143.087 121.45 145.726 121.45 148.98C121.45 152.235 124.089 154.873 127.343 154.873Z" fill="#FFB8B8"/>
<path d="M132.896 197.248C131.974 197.254 131.07 196.995 130.291 196.503C127.436 194.719 124.194 195.428 122.516 196.01C122.349 196.068 122.172 196.088 121.996 196.068C121.821 196.048 121.652 195.989 121.503 195.894C121.356 195.802 121.231 195.677 121.139 195.529C121.046 195.382 120.988 195.215 120.969 195.042L117.917 167.781C117.405 163.213 120.157 158.919 124.459 157.57C124.621 157.519 124.785 157.471 124.952 157.426C126.291 157.063 127.693 156.997 129.06 157.235C130.427 157.472 131.725 158.006 132.863 158.799C134.022 159.6 134.992 160.646 135.704 161.863C136.415 163.08 136.851 164.437 136.982 165.841L139.551 193.285C139.569 193.463 139.545 193.642 139.481 193.809C139.418 193.976 139.316 194.126 139.185 194.246C138.284 195.08 135.67 197.248 132.896 197.248Z" fill="#8CECF2"/>
<path d="M123.601 173.626L116.714 172.869C116.518 172.848 116.329 172.784 116.16 172.683C115.991 172.582 115.846 172.445 115.734 172.283C115.622 172.121 115.547 171.936 115.513 171.742C115.479 171.548 115.487 171.348 115.537 171.158L117.29 164.477C117.406 163.475 117.915 162.56 118.704 161.932C119.494 161.305 120.5 161.016 121.502 161.129C122.504 161.242 123.421 161.748 124.05 162.536C124.68 163.324 124.972 164.329 124.861 165.332L125.122 172.212C125.129 172.408 125.094 172.605 125.018 172.787C124.943 172.969 124.829 173.133 124.685 173.267C124.541 173.401 124.369 173.503 124.182 173.565C123.995 173.627 123.797 173.648 123.601 173.626Z" fill="#8CECF2"/>
<path d="M139.524 194.63C139.807 194.381 140.032 194.073 140.182 193.728C140.333 193.382 140.407 193.008 140.398 192.632C140.388 192.255 140.297 191.885 140.129 191.547C139.961 191.21 139.721 190.914 139.427 190.679L137.73 168.404L132.742 169.527L135.67 191.219C135.308 191.74 135.15 192.376 135.226 193.006C135.302 193.636 135.607 194.216 136.082 194.636C136.557 195.057 137.17 195.288 137.804 195.287C138.438 195.286 139.05 195.052 139.524 194.63Z" fill="#FFB8B8"/>
<path d="M130.83 172.227C130.685 172.092 130.572 171.929 130.496 171.746C130.421 171.564 130.386 171.368 130.393 171.171L130.654 164.291C130.543 163.289 130.835 162.283 131.464 161.495C132.094 160.708 133.011 160.202 134.013 160.089C135.015 159.975 136.021 160.264 136.811 160.892C137.6 161.519 138.109 162.434 138.225 163.436L139.978 170.117C140.028 170.308 140.036 170.507 140.002 170.701C139.968 170.895 139.893 171.08 139.781 171.242C139.669 171.405 139.524 171.541 139.355 171.643C139.186 171.744 138.997 171.807 138.801 171.829L131.914 172.586C131.718 172.608 131.52 172.587 131.333 172.525C131.145 172.463 130.974 172.361 130.83 172.227Z" fill="#8CECF2"/>
<path d="M126.993 155.095C126.888 155.094 126.784 155.082 126.682 155.058L126.652 155.051C121.471 154.258 120.326 151.257 120.074 150.004C119.814 148.707 120.111 147.454 120.78 146.968C120.415 145.815 120.473 144.794 120.954 143.93C121.793 142.423 123.613 141.914 123.857 141.851C125.31 140.779 127.05 141.495 127.366 141.64C130.177 140.6 131.252 141.466 131.446 141.659C132.703 141.885 133.469 142.37 133.724 143.102C134.201 144.477 132.691 146.187 132.626 146.26L132.593 146.297L130.342 146.404C130.129 146.414 129.92 146.469 129.729 146.566C129.538 146.662 129.369 146.797 129.234 146.962C129.098 147.128 128.999 147.32 128.943 147.526C128.887 147.733 128.875 147.948 128.907 148.16C128.968 148.432 129.045 148.701 129.137 148.965C129.522 150.166 129.81 151.192 129.438 151.582C129.354 151.658 129.251 151.708 129.139 151.727C129.028 151.747 128.913 151.734 128.809 151.691C128.457 151.597 128.218 151.617 128.099 151.75C127.914 151.956 127.97 152.478 128.258 153.22C128.348 153.454 128.372 153.709 128.328 153.956C128.283 154.203 128.172 154.434 128.007 154.623C127.882 154.77 127.727 154.888 127.551 154.97C127.376 155.051 127.186 155.094 126.993 155.095Z" fill="#2F2E41"/>
<path d="M196.585 173.933H167.555C166.473 173.932 165.436 173.502 164.672 172.737C163.907 171.972 163.477 170.936 163.476 169.854V126.229C163.477 125.147 163.907 124.111 164.672 123.346C165.436 122.581 166.473 122.151 167.555 122.15H196.585C197.667 122.151 198.703 122.581 199.468 123.346C200.233 124.111 200.663 125.147 200.664 126.229V169.854C200.663 170.936 200.233 171.972 199.468 172.737C198.703 173.502 197.667 173.932 196.585 173.933ZM167.555 122.63C166.6 122.631 165.686 123.01 165.011 123.685C164.336 124.36 163.957 125.274 163.956 126.229V169.854C163.957 170.808 164.336 171.723 165.011 172.398C165.686 173.072 166.6 173.452 167.555 173.453H196.585C197.539 173.452 198.454 173.072 199.129 172.398C199.803 171.723 200.183 170.808 200.184 169.854V126.229C200.183 125.274 199.803 124.36 199.129 123.685C198.454 123.01 197.539 122.631 196.585 122.63H167.555Z" fill="#3F3D56"/>
<path d="M192.147 143.123H171.993C171.453 143.122 170.934 142.907 170.552 142.525C170.17 142.143 169.954 141.624 169.954 141.084V131.487C169.954 130.946 170.17 130.428 170.552 130.045C170.934 129.663 171.453 129.448 171.993 129.447H192.147C192.687 129.448 193.206 129.663 193.588 130.045C193.97 130.428 194.185 130.946 194.186 131.487V141.084C194.185 141.624 193.97 142.143 193.588 142.525C193.206 142.907 192.687 143.122 192.147 143.123Z" fill="#1F2269"/>
<path d="M190.707 152.12H173.433C172.924 152.12 172.436 151.918 172.076 151.558C171.716 151.198 171.513 150.71 171.513 150.201C171.513 149.692 171.716 149.203 172.076 148.843C172.436 148.483 172.924 148.281 173.433 148.281H190.707C191.216 148.281 191.705 148.483 192.064 148.843C192.424 149.203 192.627 149.692 192.627 150.201C192.627 150.71 192.424 151.198 192.064 151.558C191.705 151.918 191.216 152.12 190.707 152.12Z" fill="#CCCCCC"/>
<path d="M190.707 159.318H173.433C172.924 159.318 172.436 159.116 172.076 158.756C171.716 158.396 171.513 157.907 171.513 157.398C171.513 156.889 171.716 156.401 172.076 156.041C172.436 155.681 172.924 155.479 173.433 155.479H190.707C191.216 155.479 191.705 155.681 192.064 156.041C192.424 156.401 192.627 156.889 192.627 157.398C192.627 157.907 192.424 158.396 192.064 158.756C191.705 159.116 191.216 159.318 190.707 159.318Z" fill="#CCCCCC"/>
<path d="M190.707 166.516H173.433C172.924 166.516 172.436 166.313 172.076 165.953C171.716 165.593 171.513 165.105 171.513 164.596C171.513 164.087 171.716 163.599 172.076 163.239C172.436 162.879 172.924 162.677 173.433 162.677H190.707C191.216 162.677 191.705 162.879 192.064 163.239C192.424 163.599 192.627 164.087 192.627 164.596C192.627 165.105 192.424 165.593 192.064 165.953C191.705 166.313 191.216 166.516 190.707 166.516Z" fill="#CCCCCC"/>
<path d="M267.363 198.405H238.332C237.251 198.404 236.214 197.974 235.449 197.209C234.684 196.444 234.254 195.408 234.253 194.326V150.701C234.254 149.619 234.684 148.583 235.449 147.818C236.214 147.053 237.251 146.623 238.332 146.622H267.363C268.444 146.623 269.481 147.053 270.245 147.818C271.01 148.583 271.44 149.619 271.441 150.701V194.326C271.44 195.408 271.01 196.444 270.245 197.209C269.481 197.974 268.444 198.404 267.363 198.405ZM238.332 147.102C237.378 147.103 236.463 147.483 235.788 148.157C235.114 148.832 234.734 149.747 234.733 150.701V194.326C234.734 195.28 235.114 196.195 235.788 196.87C236.463 197.545 237.378 197.924 238.332 197.925H267.363C268.317 197.924 269.231 197.545 269.906 196.87C270.581 196.195 270.96 195.28 270.961 194.326V150.701C270.96 149.747 270.581 148.832 269.906 148.157C269.231 147.483 268.317 147.103 267.363 147.102H238.332Z" fill="#3F3D56"/>
<path d="M261.484 157.398H244.21C243.701 157.398 243.213 157.196 242.853 156.836C242.493 156.476 242.291 155.988 242.291 155.479C242.291 154.97 242.493 154.482 242.853 154.122C243.213 153.762 243.701 153.56 244.21 153.56H261.484C261.993 153.56 262.482 153.762 262.842 154.122C263.202 154.482 263.404 154.97 263.404 155.479C263.404 155.988 263.202 156.476 262.842 156.836C262.482 157.196 261.993 157.398 261.484 157.398Z" fill="#CCCCCC"/>
<path d="M261.484 164.596H244.21C243.701 164.596 243.213 164.394 242.853 164.034C242.493 163.674 242.291 163.186 242.291 162.677C242.291 162.168 242.493 161.679 242.853 161.319C243.213 160.96 243.701 160.757 244.21 160.757H261.484C261.993 160.757 262.482 160.96 262.842 161.319C263.202 161.679 263.404 162.168 263.404 162.677C263.404 163.186 263.202 163.674 262.842 164.034C262.482 164.394 261.993 164.596 261.484 164.596Z" fill="#CCCCCC"/>
<path d="M262.924 182.95H242.77C242.23 182.949 241.711 182.734 241.329 182.352C240.947 181.97 240.732 181.451 240.731 180.911V171.314C240.732 170.773 240.947 170.255 241.329 169.872C241.711 169.49 242.23 169.275 242.77 169.274H262.924C263.465 169.275 263.983 169.49 264.365 169.872C264.747 170.255 264.963 170.773 264.963 171.314V180.911C264.963 181.451 264.747 181.97 264.365 182.352C263.983 182.734 263.465 182.949 262.924 182.95Z" fill="#E6E6E6"/>
<path d="M261.484 191.467H244.21C243.701 191.467 243.213 191.265 242.853 190.905C242.493 190.545 242.291 190.057 242.291 189.548C242.291 189.039 242.493 188.551 242.853 188.191C243.213 187.831 243.701 187.628 244.21 187.628H261.484C261.993 187.628 262.482 187.831 262.842 188.191C263.202 188.551 263.404 189.039 263.404 189.548C263.404 190.057 263.202 190.545 262.842 190.905C262.482 191.265 261.993 191.467 261.484 191.467Z" fill="#CCCCCC"/>
<path d="M249.608 129.067H220.577C219.496 129.066 218.459 128.636 217.695 127.871C216.93 127.107 216.5 126.07 216.499 124.988V97.9176C216.5 96.8362 216.93 95.7995 217.695 95.0348C218.459 94.2702 219.496 93.8401 220.577 93.8389H249.608C250.69 93.8401 251.726 94.2702 252.491 95.0348C253.256 95.7995 253.686 96.8362 253.687 97.9176V124.988C253.686 126.07 253.256 127.107 252.491 127.871C251.726 128.636 250.69 129.066 249.608 129.067ZM220.577 94.3187C219.623 94.3198 218.709 94.6993 218.034 95.374C217.359 96.0487 216.98 96.9634 216.979 97.9176V124.988C216.98 125.943 217.359 126.857 218.034 127.532C218.709 128.207 219.623 128.586 220.577 128.587H249.608C250.562 128.586 251.477 128.207 252.152 127.532C252.826 126.857 253.206 125.943 253.207 124.988V97.9176C253.206 96.9634 252.826 96.0487 252.152 95.374C251.477 94.6993 250.562 94.3198 249.608 94.3187H220.577Z" fill="#3F3D56"/>
<path d="M243.73 120.57H226.456C225.947 120.57 225.459 120.368 225.099 120.008C224.739 119.648 224.536 119.16 224.536 118.651C224.536 118.142 224.739 117.654 225.099 117.294C225.459 116.934 225.947 116.731 226.456 116.731H243.73C244.239 116.731 244.727 116.934 245.087 117.294C245.447 117.654 245.65 118.142 245.65 118.651C245.65 119.16 245.447 119.648 245.087 120.008C244.727 120.368 244.239 120.57 243.73 120.57Z" fill="#CCCCCC"/>
<path d="M243.73 113.372H226.456C225.947 113.372 225.459 113.17 225.099 112.81C224.739 112.45 224.536 111.962 224.536 111.453C224.536 110.944 224.739 110.456 225.099 110.096C225.459 109.736 225.947 109.534 226.456 109.534H243.73C244.239 109.534 244.727 109.736 245.087 110.096C245.447 110.456 245.65 110.944 245.65 111.453C245.65 111.962 245.447 112.45 245.087 112.81C244.727 113.17 244.239 113.372 243.73 113.372Z" fill="#CCCCCC"/>
<path d="M243.73 106.175H226.456C225.947 106.175 225.459 105.972 225.099 105.613C224.739 105.253 224.536 104.764 224.536 104.255C224.536 103.746 224.739 103.258 225.099 102.898C225.459 102.538 225.947 102.336 226.456 102.336H243.73C244.239 102.336 244.727 102.538 245.087 102.898C245.447 103.258 245.65 103.746 245.65 104.255C245.65 104.764 245.447 105.253 245.087 105.613C244.727 105.972 244.239 106.175 243.73 106.175Z" fill="#CCCCCC"/>
<path d="M198.265 128.827C201.312 128.827 203.783 126.356 203.783 123.309C203.783 120.261 201.312 117.791 198.265 117.791C195.217 117.791 192.747 120.261 192.747 123.309C192.747 126.356 195.217 128.827 198.265 128.827Z" fill="#1F2269"/>
<path d="M197.718 125.414C197.594 125.414 197.473 125.374 197.373 125.3L197.367 125.295L196.07 124.302C196.01 124.256 195.959 124.199 195.921 124.133C195.883 124.068 195.858 123.995 195.848 123.92C195.838 123.845 195.843 123.769 195.862 123.695C195.882 123.622 195.916 123.553 195.962 123.493C196.008 123.433 196.066 123.383 196.131 123.345C196.197 123.307 196.269 123.282 196.345 123.272C196.42 123.262 196.496 123.268 196.569 123.287C196.643 123.307 196.711 123.341 196.771 123.388L197.611 124.032L199.596 121.443C199.642 121.383 199.7 121.332 199.765 121.295C199.831 121.257 199.903 121.232 199.978 121.222C200.053 121.212 200.129 121.217 200.202 121.237C200.275 121.256 200.344 121.29 200.404 121.336L200.392 121.353L200.404 121.336C200.525 121.43 200.605 121.567 200.625 121.718C200.645 121.87 200.604 122.023 200.511 122.144L198.176 125.189C198.122 125.259 198.053 125.316 197.973 125.355C197.894 125.394 197.806 125.414 197.718 125.414Z" fill="white"/>
<path d="M270.242 153.539C273.289 153.539 275.76 151.069 275.76 148.021C275.76 144.974 273.289 142.503 270.242 142.503C267.194 142.503 264.723 144.974 264.723 148.021C264.723 151.069 267.194 153.539 270.242 153.539Z" fill="#3F3D56"/>
<path d="M269.695 150.126C269.57 150.126 269.449 150.086 269.35 150.012L269.344 150.007L268.047 149.014C267.987 148.968 267.936 148.911 267.898 148.845C267.86 148.78 267.835 148.707 267.825 148.632C267.815 148.557 267.82 148.481 267.839 148.407C267.859 148.334 267.893 148.265 267.939 148.205C267.985 148.145 268.042 148.094 268.108 148.057C268.174 148.019 268.246 147.994 268.321 147.984C268.397 147.974 268.473 147.98 268.546 147.999C268.619 148.019 268.688 148.053 268.748 148.099L269.588 148.744L271.573 146.155C271.619 146.095 271.676 146.044 271.742 146.006C271.807 145.969 271.88 145.944 271.955 145.934C272.03 145.924 272.106 145.929 272.179 145.949C272.252 145.968 272.321 146.002 272.381 146.048L272.368 146.065L272.381 146.048C272.502 146.141 272.581 146.279 272.601 146.43C272.621 146.582 272.581 146.735 272.488 146.856L270.153 149.901C270.099 149.971 270.029 150.028 269.95 150.067C269.87 150.106 269.783 150.126 269.695 150.126Z" fill="white"/>
<path d="M252.727 100.036C255.775 100.036 258.245 97.5659 258.245 94.5182C258.245 91.4706 255.775 89 252.727 89C249.68 89 247.209 91.4706 247.209 94.5182C247.209 97.5659 249.68 100.036 252.727 100.036Z" fill="#3F3D56"/>
<path d="M252.18 96.6231C252.056 96.6233 251.935 96.5832 251.836 96.5087L251.83 96.5041L250.533 95.5112C250.473 95.4653 250.422 95.4079 250.384 95.3424C250.346 95.2768 250.321 95.2044 250.311 95.1292C250.301 95.0541 250.306 94.9777 250.325 94.9044C250.345 94.8311 250.378 94.7624 250.424 94.7022C250.471 94.642 250.528 94.5915 250.594 94.5536C250.66 94.5157 250.732 94.4911 250.807 94.4813C250.882 94.4715 250.959 94.4766 251.032 94.4964C251.105 94.5161 251.174 94.5502 251.234 94.5965L252.074 95.2406L254.059 92.6518C254.105 92.5918 254.162 92.5414 254.228 92.5036C254.293 92.4657 254.366 92.4411 254.441 92.4312C254.516 92.4213 254.592 92.4263 254.665 92.4459C254.738 92.4654 254.807 92.4992 254.867 92.5452L254.854 92.562L254.867 92.5455C254.988 92.6385 255.067 92.7759 255.087 92.9273C255.107 93.0787 255.066 93.2319 254.974 93.3532L252.639 96.3982C252.585 96.4684 252.515 96.5252 252.436 96.5642C252.356 96.6032 252.269 96.6233 252.18 96.6231Z" fill="white"/>
<path d="M172.651 237.752H81.2399C81.1763 237.752 81.1153 237.727 81.0703 237.682C81.0253 237.637 81 237.576 81 237.512C81 237.449 81.0253 237.388 81.0703 237.343C81.1153 237.298 81.1763 237.272 81.2399 237.272H172.651C172.714 237.272 172.775 237.298 172.82 237.343C172.865 237.388 172.89 237.449 172.89 237.512C172.89 237.576 172.865 237.637 172.82 237.682C172.775 237.727 172.714 237.752 172.651 237.752Z" fill="#3F3D56"/>
</g>
</g>
<defs>
<clipPath id="clip0_839_6143">
<rect width="194.76" height="148.752" fill="white" transform="translate(81 89)"/>
</clipPath>
</defs>
</svg>
